<?xml version="1.0" encoding="UTF-8" standalone="no"?>
<!DOCTYPE svg PUBLIC "-//W3C//DTD SVG 1.1//EN" "http://www.w3.org/Graphics/SVG/1.1/DTD/svg11.dtd">
<svg width="100%" height="100%" viewBox="0 0 1851 458" version="1.1" xmlns="http://www.w3.org/2000/svg" xmlns:xlink="http://www.w3.org/1999/xlink" xml:space="preserve" xmlns:serif="http://www.serif.com/" style="fill-rule:evenodd;clip-rule:evenodd;stroke-linejoin:bevel;stroke-miterlimit:1.5;">
    <g transform="matrix(1,0,0,1,-366.212,-864.99)">
        <g transform="matrix(0.547977,0,0,0.547977,87.2075,607.63)">
            <path d="M2177.83,861.299C2145.5,827.861 2100.98,808.98 2054.47,808.98C1946.99,808.98 1750.14,808.98 1672.17,808.98C1663.4,808.98 1654.99,805.497 1648.79,799.295C1642.58,793.094 1639.1,784.683 1639.1,775.913L1639.1,694.191C1639.1,689.3 1639.82,684.435 1641.23,679.753C1641.23,679.753 1641.23,679.752 1641.23,679.752C1646.29,663.007 1658.97,649.642 1675.42,643.712C1682.32,641.228 1687.87,639.228 1687.87,639.228L1739.76,611.983C1885.05,624.123 1981.95,643.126 2127.24,638.106L2154.91,638.106C2178.49,638.106 2198,619.765 2199.47,596.229C2199.47,596.228 2199.47,596.227 2199.47,596.226C2202.64,545.135 2198.58,507.833 2191.8,498.451C2171.27,470.026 2093.16,471.223 2085.08,471.305C1739.18,474.842 1558.86,553.239 1514.69,676.064L1507.32,792.929L1547.04,826.98C1971.1,818.312 2207.51,1104.56 1971.23,1104.56L1380.02,1104.56C1340.02,1104.56 1978.8,1270.08 1971.23,1298.74C1972.45,1299.55 1974.58,1298.54 1977.89,1298.74C1979.04,1298.8 1932.7,1303.89 1934.14,1303.77C1952.52,1302.22 2056.83,1306.65 2093.83,1298.74C2119.41,1293.26 2141.48,1277.38 2153.82,1269.02C2201.62,1236.62 2207.53,1185.91 2209.28,1172.52C2219.15,1096.9 2215.03,998.784 2214.01,941.001C2213.95,937.239 2213.85,933.649 2213.76,930.246C2213.18,909.204 2204.75,889.14 2190.12,874.008C2186.23,869.986 2182.08,865.692 2177.83,861.299Z" style="stroke:black;stroke-width:2.11px;"/>
            <g transform="matrix(1,0,0,1,0.449273,-0.280795)">
                <path d="M1384.16,1152.56C1382.2,1153.11 1382.6,1124.65 1397.45,1117.36" style="stroke:rgb(4,1,1);stroke-width:4.48px;"/>
            </g>
            <g transform="matrix(0.804917,-0.593388,0.593388,0.804917,-391.735,1047.61)">
                <rect x="1397.19" y="1116.47" width="2.295" height="2.671"/>
                <rect x="1397.19" y="1116.47" width="2.295" height="2.671"/>
            </g>
            <g transform="matrix(1.01737,0,0,1.01737,-12.3718,-19.391)">
                <path d="M762.775,1116.47L950.414,775.911" style="fill:none;stroke:black;stroke-width:1.79px;stroke-linecap:round;stroke-linejoin:round;"/>
                <g transform="matrix(0.982928,0,0,0.982928,12.1606,19.0599)">
                    <path d="M740.082,1103.84L797.732,1103.84C797.732,1103.84 884.949,1104.62 929.494,1105.01C949.068,1105.18 967.512,1114.2 979.664,1129.55C984.592,1135.77 988.288,1142.14 988.288,1147.23C988.288,1154 988.288,1155.6 988.288,1155.29C988.288,1155.28 988.29,1155.27 988.295,1155.27C988.3,1155.26 988.306,1155.26 988.312,1155.26C988.343,1169.97 988.5,1222.18 988.5,1222.18L988.5,1238.8C988.501,1260.8 978.235,1281.54 960.742,1294.88C960.709,1294.84 960.709,1294.84 960.709,1294.84C957.312,1297.42 953.556,1299.49 949.562,1300.99C946.646,1302.12 943.633,1303.25 943.633,1303.25C936.989,1306.18 909.91,1303.51 902.298,1303.98" style="stroke:black;stroke-width:1.58px;stroke-linecap:round;stroke-linejoin:round;"/>
                </g>
                <path d="M960.451,790.967L924.847,743.046L712.328,1116.47L781.846,1116.47" style="stroke:black;stroke-width:1.79px;stroke-linecap:round;stroke-linejoin:round;"/>
            </g>
            <path d="M1017.73,470.567L928.481,471.306L1382.73,1156.85C1382.58,1131.09 1402.4,1120.3 1411.03,1116.47L1441.74,1103.68L1017.73,470.567Z" style="stroke:black;stroke-width:1.82px;stroke-linecap:round;stroke-linejoin:round;"/>
            <g>
                <path d="M935.51,470.705L1482.48,1304.39L1282.01,1304.39L948.811,775.911L925.184,741.5L712.542,1116.47L874.887,1116.47C915.987,1116.47 924.847,1136.8 924.847,1136.8C924.847,1136.8 926.986,1140.82 929.348,1145.26C933.394,1152.86 935.51,1161.34 935.51,1169.95C935.51,1198.13 935.51,1263.33 935.51,1281.52C935.51,1284.65 934.67,1287.73 933.078,1290.43C933.078,1290.43 933.078,1290.43 933.078,1290.43C927.978,1299.08 918.683,1304.39 908.641,1304.39L621.525,1304.39C568.045,1304.39 521.678,1267.39 509.805,1215.25C509.805,1215.25 509.805,1215.25 509.805,1215.24C509.372,1213.34 509.154,1211.4 509.154,1209.45L509.154,1203.6C509.154,1189.22 513.127,1175.12 520.634,1162.86C532.415,1143.61 549.034,1116.47 549.034,1116.47L924.851,470.705L935.51,470.705Z" style="fill:rgb(203,30,30);"/>
            </g>
            <path d="M1383.93,1154.21C1383.93,1154.21 1383.44,1144.25 1383.93,1142.67C1384.41,1141.08 1384.34,1134.26 1387.85,1126.67C1387.85,1126.67 1387.85,1126.67 1387.85,1126.67C1390.74,1120.45 1396.97,1116.47 1403.83,1116.47C1433.25,1116.47 1556.05,1116.47 1556.05,1116.47L1885.92,1116.47C1900.79,1116.47 1872.82,1116.47 1885.92,1116.47C1900.27,1116.47 1938.66,1110.87 1944.04,1090.65C1944.2,1090.06 1949.95,1071.03 1949.95,1059.7C1949.95,1025.51 1956.82,997.464 1946.68,979.7C1937.33,963.305 1930.36,961.112 1921.76,957.47C1917.16,955.523 1909.73,954.451 1901.01,954.451L1492.87,954.451C1485.84,954.451 1451.94,949.388 1430.46,939.57C1405.86,928.329 1393.53,911.598 1387.85,901.8C1375.17,879.896 1370.41,846.631 1370.41,821.633C1370.41,799.016 1370.12,729.375 1370.4,676.064C1370.4,675.367 1370.4,674.67 1370.41,673.974C1371,625.872 1387.26,579.276 1416.73,541.252C1432.34,521.075 1455.92,496.172 1482.48,487.036C1529.97,470.705 1533.44,470.705 1553.47,470.705L2069.54,470.705C2069.99,470.705 2070.45,470.678 2070.9,470.625C2076.54,470.19 2107.31,471.244 2121.26,507.289C2128.65,526.361 2122.38,593.322 2121.26,592.79C2121.26,592.79 2114.79,622.616 2107.31,630.946C2102.58,636.21 2095.84,639.217 2088.76,639.217L1593.53,639.217C1534.42,653.459 1545.5,765.727 1553.47,786.822C1556.66,795.281 1559.93,801.333 1562.82,805.993C1574.16,824.263 1581.98,821.633 1660.71,821.633C1660.77,821.633 1975.63,821.633 2009.5,821.633C2011.5,821.633 2013.49,821.811 2015.45,822.164C2027.4,824.799 2064.16,836.156 2101.87,887.547C2133.17,930.189 2126.93,1039.08 2125.23,1126.67C2124.87,1145.05 2130.65,1224.18 2069.54,1269.08C2026.95,1300.37 1999.59,1304.39 1919.12,1304.39L1501.27,1304.39C1501.27,1304.39 1501.27,1304.39 1501.27,1304.39C1501.27,1304.39 1501.27,1304.39 1501.27,1304.39C1501.27,1304.39 1501.26,1304.39 1501.26,1304.38C1481.14,1286.2 1478.67,1295.78 1482.48,1304.39L1383.93,1154.21Z" style="fill:white;"/>
            <g transform="matrix(0.354323,-0.223764,0.533961,0.845509,-158.827,489.127)">
                <path d="M2332.45,1354.97L2263.75,1336.79L2269.39,1564.82L2345.41,1584.94L2332.45,1354.97Z"/>
            </g>
        </g>
        <g id="napisy" transform="matrix(0.529868,0,0,0.529868,1083.54,315.47)">
            <g transform="matrix(1,0,0,1,-28.35,10.9239)">
                <path d="M614.043,1514.35L614.043,1534.77L723.176,1534.77C731.596,1534.77 737.352,1533.56 740.444,1531.12C743.536,1528.69 745.082,1524.38 745.082,1518.19L745.082,1514.35L791.853,1514.35L791.853,1530.04C791.853,1544.11 788.136,1554.38 780.703,1560.82C773.269,1567.27 761.264,1570.49 744.687,1570.49L717.453,1570.49L813.758,1649.23L744.095,1649.23L660.025,1570.49L614.043,1570.49L614.043,1649.23L566.285,1649.23L566.285,1514.35L614.043,1514.35ZM566.285,1496.27L566.285,1440.64L744.687,1440.64C761.264,1440.64 773.269,1443.83 780.703,1450.21C788.136,1456.59 791.853,1466.88 791.853,1481.09L791.853,1496.27L745.082,1496.27L745.082,1493.13C745.082,1487.08 743.536,1482.84 740.444,1480.4C737.352,1477.97 731.596,1476.75 723.176,1476.75L614.043,1476.75L614.043,1496.27L566.285,1496.27Z" style="fill:white;fill-rule:nonzero;"/>
            </g>
            <g transform="matrix(1,0,0,1,158.964,-745.391)">
                <path d="M756.372,2273.96L756.372,2366.28L916.421,2366.28L916.421,2273.96L964.771,2273.96L964.771,2356.21C964.771,2375.29 961.218,2388.28 954.114,2395.19C947.009,2402.09 933.327,2405.55 913.066,2405.55L759.53,2405.55C739.269,2405.55 725.586,2402.09 718.482,2395.19C711.377,2388.28 707.825,2375.29 707.825,2356.21L707.825,2273.96L756.372,2273.96ZM707.825,2255.89L707.825,2246.29C707.825,2227.34 711.377,2214.38 718.482,2207.41C725.586,2200.44 739.269,2196.95 759.53,2196.95L913.066,2196.95C933.327,2196.95 947.009,2200.44 954.114,2207.41C961.218,2214.38 964.771,2227.34 964.771,2246.29L964.771,2255.89L916.421,2255.89L916.421,2234.25L756.372,2234.25L756.372,2255.89L707.825,2255.89Z" style="fill:white;fill-rule:nonzero;"/>
            </g>
            <g transform="matrix(1,0,0,1,358.95,-1074.74)">
                <path d="M992.134,2526.31L1010.95,2526.31L1130.54,2734.9L1076.07,2734.9L1051.01,2689.32L1003.14,2689.32L1003.14,2651.62L1030.88,2651.62L992.134,2578.54L992.134,2526.31ZM979.411,2526.31L979.411,2578.61L939.51,2651.62L968.401,2651.62L968.401,2689.32L918.789,2689.32L894.515,2734.9L846.165,2734.9L964.179,2526.31L979.411,2526.31Z" style="fill:white;fill-rule:nonzero;"/>
            </g>
            <g transform="matrix(1,0,0,1,529.038,-1404.1)">
                <path d="M1090.38,2935.95L1090.38,3024.98L1153.14,3024.98C1186.56,3024.98 1210.24,3019.79 1224.18,3009.39C1238.13,2999 1245.1,2981.83 1245.1,2957.89C1245.1,2949.84 1244.28,2942.53 1242.63,2935.95L1293.39,2935.95C1294.62,2943.08 1295.23,2950.66 1295.23,2958.68C1295.23,2978.15 1291.21,2995.68 1283.19,3011.27C1275.16,3026.86 1263.85,3039.13 1249.25,3048.07C1240.17,3053.73 1228.89,3057.84 1215.4,3060.41C1201.92,3062.97 1184.65,3064.26 1163.6,3064.26L1041.84,3064.26L1041.84,2935.95L1090.38,2935.95ZM1041.84,2917.88L1041.84,2855.66L1176.03,2855.66C1214.32,2855.66 1243.75,2864.61 1264.34,2882.5C1275.42,2892.12 1283.52,2903.92 1288.63,2917.88L1234.83,2917.88C1232.78,2914.79 1230.41,2911.98 1227.74,2909.44C1216.16,2898.45 1199.05,2892.96 1176.42,2892.96L1090.38,2892.96L1090.38,2917.88L1041.84,2917.88Z" style="fill:white;fill-rule:nonzero;"/>
            </g>
            <g transform="matrix(1,0,0,1,699.324,-1729.41)">
                <path d="M1396.31,3262.53C1411.8,3263.44 1422.58,3266.84 1428.63,3272.73C1435.81,3279.71 1439.39,3292.66 1439.39,3311.61L1439.39,3340.23C1439.39,3359.17 1435.81,3372.13 1428.63,3379.1C1421.46,3386.08 1407.68,3389.56 1387.29,3389.56L1258.42,3389.56C1238.03,3389.56 1224.25,3386.08 1217.08,3379.1C1209.91,3372.13 1206.32,3359.17 1206.32,3340.23L1206.32,3334.5L1249.15,3325.62L1249.15,3350.29L1396.57,3350.29L1396.57,3302.73L1266.51,3302.73C1246.25,3302.73 1232.57,3299.24 1225.47,3292.27C1219.57,3286.48 1216.12,3276.57 1215.12,3262.53L1396.31,3262.53ZM1214.81,3244.45L1214.81,3230.3C1214.81,3211.36 1218.36,3198.4 1225.47,3191.43C1232.57,3184.45 1246.25,3180.97 1266.51,3180.97L1384.92,3180.97C1404.53,3180.97 1418.04,3184.32 1425.48,3191.03C1432.91,3197.74 1436.63,3209.65 1436.63,3226.75L1436.63,3231.09L1393.8,3241.16L1393.8,3217.48L1257.24,3217.48L1257.24,3244.45L1214.81,3244.45Z" style="fill:white;fill-rule:nonzero;"/>
            </g>
        </g>
    </g>
</svg>
